<svg width="200" height="400" xmlns="http://www.w3.org/2000/svg">

 <g>
  <title>Layer 1</title>
  <g id="svg_24">
   <path fill="#deb887" id="svg_21" d="m180.14371,223.12513c-9.39951,-15.46988 -20.89914,-27.99437 -32.43408,-36.75574c-13.45947,8.98045 -29.85238,14.44888 -47.72383,14.44888c-17.90654,0 -34.32303,-5.47908 -47.75877,-14.44888c-11.53492,8.76136 -23.0463,21.28585 -32.46888,36.75574c-21.8731,35.91664 -24.2786,72.75794 -5.38638,82.3104c8.46074,4.30308 17.33169,1.09581 26.4964,-6.9493c-1.60761,8.15724 -2.54643,16.99862 -2.54643,26.24646c0,41.0858 17.51959,74.36701 39.11059,74.36701c13.01362,0 19.45575,-12.11844 22.55347,-30.67268c3.0863,18.55425 9.52837,30.67268 22.49483,30.67268c21.62647,0 39.14623,-33.28121 39.14623,-74.36701c0,-9.24785 -0.93913,-18.08923 -2.58168,-26.24646c9.18796,8.04511 18.04725,11.25238 26.53148,6.9493c18.8806,-9.55246 16.43957,-46.39378 -5.43292,-82.3104l-0.00001,0zm-80.18101,-36.32279c36.32939,0 65.79442,-26.84513 65.79442,-59.96061s-29.46503,-59.96069 -65.79442,-59.96069c-36.34175,0 -65.83005,26.85047 -65.83005,59.96069s29.4883,59.96061 65.83005,59.96061z" stroke="#000"/>
   <path fill="#deb887" stroke-width="4" stroke-dasharray="5,2,2,2,2,2" id="svg_22" d="m75.56822,188.46373c-29.41162,-10.01161 -50.49289,-41.8233 -45.70196,-68.96443c3.02101,-17.11454 66.7568,-121.01176 72.32295,-117.89543c1.81672,1.01712 17.98324,25.23993 35.9256,53.82846c28.74178,45.79581 32.62246,54.33531 32.62246,71.78627c0,35.37238 -31.25,64.34636 -68.7721,63.76329c-10.94948,-0.17017 -22.82811,-1.30334 -26.39695,-2.51815l0,-0.00001zm29.46712,-17.791c0.97354,-4.57947 -1.3006,-6.81285 -6.93722,-6.81285c-12.84645,0 -30.66656,-14.7392 -34.64785,-28.65758c-4.24695,-14.84713 -15.5075,-16.61289 -17.17075,-2.69253c-3.20447,26.81956 53.35724,63.55738 58.75581,38.16297l0.00001,0z" stroke="#FFF"/>
  </g>
 </g>
</svg>